<svg width="48" height="48" viewBox="0 0 48 48" fill="none" xmlns="http://www.w3.org/2000/svg">
  <path d="M24 4L6 12V24C6 32.5 10.5 40.5 24 44C37.5 40.5 42 32.5 42 24V12L24 4Z" fill="#EA580C" stroke="#C2410C" stroke-width="2" stroke-linejoin="round"/>
  <path d="M24 28C26.7614 28 29 25.7614 29 23C29 20.2386 26.7614 18 24 18C21.2386 18 19 20.2386 19 23C19 25.7614 21.2386 28 24 28Z" fill="white"/>
  <path d="M24 32C27.3137 32 30 29.3137 30 26C30 22.6863 27.3137 20 24 20C20.6863 20 18 22.6863 18 26C18 29.3137 20.6863 32 24 32Z" fill="#FED7AA" opacity="0.8"/>
  <path d="M20 23L22.5 25.5L28 20" stroke="white" stroke-width="2" stroke-linecap="round" stroke-linejoin="round"/>
</svg>

